<svg xmlns="http://www.w3.org/2000/svg" width="1080" height="1920" viewBox="0 0 1080 1920"><rect width="1080" height="1920" fill="#f4faf7"/><rect x="45" y="45" width="990" height="1830" rx="42" fill="#fff"/><text x="540" y="135" text-anchor="middle" font-family="Arial" font-size="54" font-weight="900" fill="#123653">ÇAĞ-NUR TEMİZLİK</text><text x="540" y="185" text-anchor="middle" font-family="Arial" font-size="25" fill="#2f8f2c">Temizlikte Güvenilir Çözüm</text><rect x="90" y="240" width="900" height="250" rx="34" fill="#123653"/><text x="540" y="325" text-anchor="middle" font-family="Arial" font-size="47" font-weight="900" fill="#fff">TEMİZ ORTAMLAR</text><text x="540" y="385" text-anchor="middle" font-family="Arial" font-size="39" font-weight="900" fill="#67d34f">DAHA MUTLU HAYATLAR</text><text x="540" y="440" text-anchor="middle" font-family="Arial" font-size="24" fill="#fff">Sarıçam &amp; Adana</text><g font-family="Arial"><rect x="90" y="540" width="900" height="155" rx="25" fill="#123653"/><text x="140" y="600" font-size="32" font-weight="900" fill="#fff">Ev Temizliği</text><text x="140" y="645" font-size="22" fill="#dceaf1">Hijyenik ve detaylı temizlik</text><rect x="90" y="725" width="900" height="155" rx="25" fill="#123653"/><text x="140" y="785" font-size="32" font-weight="900" fill="#fff">Apartman &amp; Site Temizliği</text><text x="140" y="830" font-size="22" fill="#dceaf1">Düzenli ve profesyonel hizmet</text><rect x="90" y="910" width="900" height="155" rx="25" fill="#123653"/><text x="140" y="970" font-size="32" font-weight="900" fill="#fff">İnşaat Sonrası Temizlik</text><text x="140" y="1015" font-size="22" fill="#dceaf1">Zorlu kirlerde etkili çözüm</text><rect x="90" y="1095" width="900" height="155" rx="25" fill="#123653"/><text x="140" y="1155" font-size="32" font-weight="900" fill="#fff">Ofis &amp; İşyeri Temizliği</text><text x="140" y="1200" font-size="22" fill="#dceaf1">Daha temiz çalışma alanları</text></g><text x="540" y="1340" text-anchor="middle" font-family="Arial" font-size="37" font-weight="900" fill="#123653">GÜVENİLİR HİZMET • DENEYİMLİ EKİP</text><text x="540" y="1395" text-anchor="middle" font-family="Arial" font-size="27" fill="#2f8f2c">%100 MÜŞTERİ MEMNUNİYETİ ODAKLI</text><rect x="90" y="1475" width="900" height="235" rx="35" fill="#20d467"/><text x="540" y="1540" text-anchor="middle" font-family="Arial" font-size="28" font-weight="800" fill="#fff">HEMEN İLETİŞİME GEÇİN</text><text x="540" y="1615" text-anchor="middle" font-family="Arial" font-size="58" font-weight="900" fill="#fff">0541 914 78 01</text><text x="540" y="1665" text-anchor="middle" font-family="Arial" font-size="23" fill="#fff">WhatsApp'tan fiyat teklifi alın</text><text x="540" y="1785" text-anchor="middle" font-family="Arial" font-size="31" font-weight="800" fill="#123653">Temizlik Bizim İşimiz</text><text x="540" y="1835" text-anchor="middle" font-family="Arial" font-size="22" fill="#718087">Çağ-Nur Temizlik • Sarıçam / Adana</text></svg>